# 3ds Max Wavefront OBJ Exporter v0.97b - (c)2007 guruware
# File Created: 12.07.2013 14:06:21

mtllib sk_rail_convert.mtl

#
# object Box104
#

v  -304.8005 -0.0001 0.0000
v  -264.1605 -0.0001 0.0000
v  -568.9601 3312.1602 0.0000
v  -528.3201 3312.1602 0.0000
v  -304.8005 -0.0001 162.5600
v  -264.1605 -0.0001 162.5600
v  -568.9601 3312.1602 162.5600
v  -528.3201 3312.1602 162.5600
# 8 vertices

vn 0.0000 0.0000 -1.0000
vn 0.0000 0.0000 1.0000
vn 0.9968 0.0795 0.0000
vn -0.9968 -0.0795 0.0000
# 4 vertex normals

vt 0.0000 0.0000 0.0000
vt 0.5000 0.0000 0.0000
vt 0.5000 4.0000 0.0000
vt 0.0000 4.0000 0.0000
vt -0.0000 4.0000 0.0000
vt -1.0000 4.0000 0.0000
vt -1.0000 -0.0000 0.0000
# 7 texture coords

g Box104
usemtl me_i_beam
s 2
f -8/-7/-4 -6/-6/-4 -5/-5/-4 -7/-4/-4 
s 4
f -4/-7/-3 -3/-6/-3 -1/-5/-3 -2/-4/-3 
s 16
f -7/-7/-2 -5/-3/-2 -1/-2/-2 -3/-1/-2 
s 64
f -6/-7/-1 -8/-3/-1 -4/-2/-1 -2/-1/-1 
# 4 polygons

#
# object Box105
#

v  -60.9606 -0.0001 101.6000
v  -35.5604 -0.0001 101.6000
v  -60.9606 3312.1602 101.6000
v  -35.5604 3312.1602 101.6000
v  -60.9606 -0.0001 142.2400
v  -35.5604 -0.0001 142.2400
v  -60.9606 3312.1602 142.2400
v  -35.5604 3312.1602 142.2400
# 8 vertices

vn 0.0000 0.0000 1.0000
vn 1.0000 0.0000 0.0000
vn -1.0000 0.0000 0.0000
# 3 vertex normals

vt -4.0000 1.0000 0.0000
vt -4.0000 -0.0000 0.0000
vt 0.0000 0.0000 0.0000
vt -0.0000 1.0000 0.0000
vt 4.0000 1.0000 0.0000
vt 0.0000 1.0000 0.0000
vt 4.0000 0.0000 0.0000
# 7 texture coords

g Box105
usemtl ch_countertop_sidetrim
s 4
f -4/-7/-3 -3/-6/-3 -1/-5/-3 -2/-4/-3 
s 16
f -7/-3/-2 -5/-2/-2 -1/-5/-2 -3/-1/-2 
s 64
f -6/-3/-1 -8/-2/-1 -4/-5/-1 -2/-1/-1 
# 3 polygons

#
# object Box106
#

v  35.5599 -0.0001 101.6000
v  60.9601 -0.0001 101.6000
v  35.5594 3312.1602 101.6000
v  60.9596 3312.1602 101.6000
v  35.5599 -0.0001 142.2400
v  60.9601 -0.0001 142.2400
v  35.5594 3312.1602 142.2400
v  60.9596 3312.1602 142.2400
# 8 vertices

vn 0.0000 0.0000 1.0000
vn 1.0000 0.0000 0.0000
vn -1.0000 -0.0000 0.0000
# 3 vertex normals

vt -4.0000 1.0000 0.0000
vt -4.0000 -0.0000 0.0000
vt 0.0000 0.0000 0.0000
vt -0.0000 1.0000 0.0000
vt 4.0000 1.0000 0.0000
vt 0.0000 1.0000 0.0000
vt 4.0000 0.0000 0.0000
# 7 texture coords

g Box106
usemtl ch_countertop_sidetrim
s 4
f -4/-7/-3 -3/-6/-3 -1/-5/-3 -2/-4/-3 
s 16
f -7/-3/-2 -5/-2/-2 -1/-5/-2 -3/-1/-2 
s 64
f -6/-3/-1 -8/-2/-1 -4/-5/-1 -2/-1/-1 
# 3 polygons

#
# object Box107
#

v  -243.8405 -0.0001 101.6000
v  -203.2000 -0.0001 101.6000
v  -381.0002 3312.1602 101.6000
v  -203.2000 3312.1602 101.6000
v  -243.8405 -0.0001 142.2400
v  -203.2000 -0.0001 142.2400
v  -381.0002 3312.1602 142.2400
v  -203.2000 3312.1602 142.2400
# 8 vertices

vn 0.0000 0.0000 1.0000
vn 1.0000 0.0000 0.0000
vn -0.9991 -0.0414 0.0000
# 3 vertex normals

vt 0.6797 -2.0547 0.5938
vt 0.7422 -2.0547 0.5938
vt 0.7422 3.0391 0.5938
vt 0.4688 3.0391 0.5938
vt -2.0547 0.5313 0.7422
vt 3.0391 0.5313 0.7422
vt 3.0391 0.5938 0.7422
vt -2.0547 0.5938 0.7422
vt -2.0391 0.5313 0.4688
vt 3.0547 0.5313 0.6797
vt 3.0547 0.5938 0.6797
vt -2.0391 0.5938 0.4688
# 12 texture coords

g Box107
usemtl kplatek
s 4
f -4/-12/-3 -3/-11/-3 -1/-10/-3 -2/-9/-3 
s 16
f -7/-8/-2 -5/-7/-2 -1/-6/-2 -3/-5/-2 
s 64
f -6/-4/-1 -8/-3/-1 -4/-2/-1 -2/-1/-1 
# 3 polygons

#
# object Box108
#

v  203.1995 -0.0001 101.6000
v  243.8395 -0.0001 101.6000
v  203.1995 3312.1602 101.6000
v  380.9997 3312.1602 101.6000
v  203.1995 -0.0001 142.2400
v  243.8395 -0.0001 142.2400
v  203.1995 3312.1602 142.2400
v  380.9997 3312.1602 142.2400
# 8 vertices

vn 0.0000 0.0000 1.0000
vn 0.9991 -0.0414 0.0000
vn -1.0000 0.0000 0.0000
# 3 vertex normals

vt 0.4844 -2.0547 0.5938
vt 0.5469 -2.0547 0.5938
vt 0.7578 3.0391 0.5938
vt 0.4844 3.0391 0.5938
vt -2.0547 0.5313 0.5469
vt 3.0391 0.5313 0.7578
vt 3.0391 0.5938 0.7578
vt -2.0547 0.5938 0.5469
vt -2.0391 0.5313 0.4844
vt 3.0547 0.5313 0.4844
vt 3.0547 0.5938 0.4844
vt -2.0391 0.5938 0.4844
# 12 texture coords

g Box108
usemtl kplatek
s 4
f -4/-12/-3 -3/-11/-3 -1/-10/-3 -2/-9/-3 
s 16
f -7/-8/-2 -5/-7/-2 -1/-6/-2 -3/-5/-2 
s 64
f -6/-4/-1 -8/-3/-1 -4/-2/-1 -2/-1/-1 
# 3 polygons

#
# object Box109
#

v  -264.1608 -0.0001 60.9600
v  264.1594 -0.0001 60.9600
v  -528.3205 3312.1602 60.9600
v  528.3201 3312.1602 60.9600
v  -264.1608 -0.0001 101.6000
v  264.1594 -0.0001 101.6000
v  -528.3205 3312.1602 101.6000
v  528.3201 3312.1602 101.6000
# 8 vertices

vn 0.0000 0.0000 -1.0000
vn 0.0000 0.0000 1.0000
# 2 vertex normals

vt 10.0000 4.0000 0.0000
vt 0.0000 4.0000 0.0000
vt 0.0000 0.0000 0.0000
vt 10.0000 0.0000 0.0000
# 4 texture coords

g Box109
usemtl me_i_beam
s 2
f -8/-4/-2 -6/-3/-2 -5/-2/-2 -7/-1/-2 
s 4
f -4/-4/-1 -3/-3/-1 -1/-2/-1 -2/-1/-1 
# 2 polygons

#
# object Box110
#

v  -203.2009 -0.0001 132.0800
v  -60.9603 -0.0001 132.0800
v  -203.2004 3312.1602 132.0800
v  -60.9603 3312.1602 132.0800
# 4 vertices

vn 0.0000 -0.0000 1.0000
# 1 vertex normals

vt 0.6000 10.0000 0.0000
vt 0.0000 10.0000 0.0000
vt 0.0000 0.0000 0.0000
vt 0.6000 0.0000 0.0000
# 4 texture coords

g Box110
usemtl ch_metal_diamondplating
s 4
f -4/-4/-1 -3/-3/-1 -1/-2/-1 -2/-1/-1 
# 1 polygons

#
# object Box111
#

v  60.9593 -0.0001 132.0800
v  203.1999 -0.0001 132.0800
v  60.9593 3312.1602 132.0800
v  203.1999 3312.1602 132.0800
# 4 vertices

vn 0.0000 -0.0000 1.0000
# 1 vertex normals

vt 0.6000 10.0000 0.0000
vt 0.0000 10.0000 0.0000
vt 0.0000 0.0000 0.0000
vt 0.6000 0.0000 0.0000
# 4 texture coords

g Box111
usemtl ch_metal_diamondplating
s 4
f -4/-4/-1 -3/-3/-1 -1/-2/-1 -2/-1/-1 
# 1 polygons

#
# object Box112
#

v  -35.5607 -0.0001 121.9200
v  35.5593 -0.0001 121.9200
v  -35.5607 3312.1602 121.9200
v  35.5598 3312.1602 121.9200
# 4 vertices

vn 0.0000 -0.0000 1.0000
# 1 vertex normals

vt 0.0000 0.0000 0.0000
vt 0.5000 0.0000 0.0000
vt 0.5000 4.0000 0.0000
vt 0.0000 4.0000 0.0000
# 4 texture coords

g Box112
usemtl me_i_beam
s 4
f -4/-4/-1 -3/-3/-1 -1/-2/-1 -2/-1/-1 
# 1 polygons

#
# object Box113
#

v  304.7995 -0.0001 0.0004
v  264.1595 -0.0001 0.0004
v  568.9597 3312.1602 -0.0017
v  528.3196 3312.1602 -0.0017
v  304.7995 -0.0002 162.5604
v  264.1595 -0.0002 162.5604
v  568.9597 3312.1602 162.5583
v  528.3196 3312.1602 162.5583
# 8 vertices

vn 0.0000 -0.0000 -1.0000
vn 0.0000 0.0000 1.0000
vn -0.9968 0.0795 0.0000
vn -0.9968 0.0795 -0.0000
vn 0.9968 -0.0795 0.0000
vn 0.9968 -0.0795 -0.0000
# 6 vertex normals

vt 0.0000 0.0000 0.0000
vt 0.5000 0.0000 0.0000
vt 0.5000 4.0000 0.0000
vt 0.0000 4.0000 0.0000
vt -0.0000 4.0000 0.0000
vt -1.0000 4.0000 0.0000
vt -1.0000 -0.0000 0.0000
# 7 texture coords

g Box113
usemtl me_i_beam
s 2
f -7/-4/-6 -5/-5/-6 -6/-6/-6 -8/-7/-6 
s 4
f -2/-4/-5 -1/-5/-5 -3/-6/-5 -4/-7/-5 
s 16
f -3/-1/-4 -1/-2/-3 -5/-3/-3 -7/-7/-4 
s 64
f -2/-1/-2 -4/-2/-1 -8/-3/-1 -6/-7/-2 
# 4 polygons

